<svg xmlns="http://www.w3.org/2000/svg" viewBox="0 0 209.05 50.89" width="209.05" height="50.89"><defs><style>.cls-1{fill:#fff;}</style></defs><title>Asset 3</title><g id="Layer_2" data-name="Layer 2"><g id="Layer_1-2" data-name="Layer 1"><path class="cls-1" d="M177.15,38h0l20.36-7.37a11.23,11.23,0,0,0,6.24-5.57L209,14.41l-26.11,15h0l5-7.47a11.23,11.23,0,0,0,1.91-6.26V0L172.53,30,155.19,0V15.66a11.23,11.23,0,0,0,1.91,6.26l5,7.47-26.1-15h0l5.31,10.68a11.22,11.22,0,0,0,6.24,5.57L167.91,38h9.23Z"/><polygon class="cls-1" points="189.87 0 189.87 0 189.87 0 189.87 0"/><polygon class="cls-1" points="167.91 40.44 172.57 47.4 177.23 40.44 172.57 43.92 167.91 40.44"/><polygon class="cls-1" points="154.72 38.03 152.24 38.03 152.24 46.39 145.59 38.01 143.66 38.01 143.66 50.78 146.15 50.78 146.15 42.6 152.71 50.78 154.72 50.78 154.72 38.03"/><path class="cls-1" d="M8.52,45a5.18,5.18,0,0,0-1.39-.66,18,18,0,0,0-1.83-.48q-.92-.2-1.59-.4A4.67,4.67,0,0,1,2.6,43,1.8,1.8,0,0,1,2,42.35a1.91,1.91,0,0,1-.21-.94,2.13,2.13,0,0,1,.77-1.73A3.87,3.87,0,0,1,5,39a5.26,5.26,0,0,1,2,.38,3.88,3.88,0,0,1,1.45,1l.59-1a6.09,6.09,0,0,0-1.81-1.09A6.2,6.2,0,0,0,5,37.92a6.67,6.67,0,0,0-1.84.24,4.35,4.35,0,0,0-1.44.7A3.11,3.11,0,0,0,.8,40a3.59,3.59,0,0,0-.33,1.57,2.94,2.94,0,0,0,.26,1.3,2.48,2.48,0,0,0,.77.91,4.56,4.56,0,0,0,1.27.63q.75.25,1.76.48t1.68.43a5.17,5.17,0,0,1,1.21.51,2.09,2.09,0,0,1,.73.7,1.9,1.9,0,0,1,.24,1,1.84,1.84,0,0,1-.86,1.66,4.44,4.44,0,0,1-2.39.55,6.59,6.59,0,0,1-2.64-.51A5.64,5.64,0,0,1,.61,48L0,49a7.52,7.52,0,0,0,5.13,1.85A7.74,7.74,0,0,0,7,50.68,4.29,4.29,0,0,0,8.42,50a3.05,3.05,0,0,0,1-1.08,3.23,3.23,0,0,0,.34-1.53A3.1,3.1,0,0,0,9.41,46,2.8,2.8,0,0,0,8.52,45Z"/><polygon class="cls-1" points="20.8 43.69 13.23 43.69 13.23 38.01 11.99 38.01 11.99 50.78 13.23 50.78 13.23 44.81 20.8 44.81 20.8 50.78 22.06 50.78 22.06 38.01 20.8 38.01 20.8 43.69"/><path class="cls-1" d="M46.09,39.88a5.41,5.41,0,0,0-1.91-1.37A6.63,6.63,0,0,0,41.5,38H37.18V50.78H41.5A6.69,6.69,0,0,0,44,50.32,5.39,5.39,0,0,0,46,49a5.78,5.78,0,0,0,1.22-2,7.61,7.61,0,0,0,.43-2.64,7.93,7.93,0,0,0-.38-2.47A5.63,5.63,0,0,0,46.09,39.88ZM46,46.47a4.83,4.83,0,0,1-.93,1.67,4.28,4.28,0,0,1-1.52,1.11,5.12,5.12,0,0,1-2.1.4H38.42V39.12H41.5a5.18,5.18,0,0,1,2.07.39,4.22,4.22,0,0,1,1.52,1.09A4.74,4.74,0,0,1,46,42.26a6.58,6.58,0,0,1,.32,2.11A6.7,6.7,0,0,1,46,46.47Z"/><path class="cls-1" d="M59.62,40a6.14,6.14,0,0,0-1.89-1.48,5.26,5.26,0,0,0-2.44-.57,5.37,5.37,0,0,0-2.37.53A6.14,6.14,0,0,0,51,39.88a6.74,6.74,0,0,0-1.27,2.07,6.64,6.64,0,0,0-.46,2.45,6.84,6.84,0,0,0,.43,2.39,6.62,6.62,0,0,0,1.22,2.08,6,6,0,0,0,1.9,1.46,5.63,5.63,0,0,0,4.81,0,6.11,6.11,0,0,0,1.9-1.42,6.76,6.76,0,0,0,1.26-2.06,6.65,6.65,0,0,0,.46-2.45A6.75,6.75,0,0,0,60.83,42,6.87,6.87,0,0,0,59.62,40Zm.05,6.37A5.67,5.67,0,0,1,58.73,48a4.78,4.78,0,0,1-1.49,1.22,4.11,4.11,0,0,1-2,.47,4.17,4.17,0,0,1-1.92-.44,4.77,4.77,0,0,1-1.49-1.19,5.43,5.43,0,0,1-1-1.71,5.94,5.94,0,0,1-.34-2,5.84,5.84,0,0,1,.33-1.94,5.62,5.62,0,0,1,.94-1.71,4.68,4.68,0,0,1,1.49-1.21,4.18,4.18,0,0,1,2-.46,4.13,4.13,0,0,1,1.91.44,4.83,4.83,0,0,1,1.49,1.18,5.5,5.5,0,0,1,1,1.7,5.88,5.88,0,0,1,0,3.95Z"/><path class="cls-1" d="M102.15,44.51a4.25,4.25,0,0,0,.62-2.26,4.1,4.1,0,0,0-.31-1.54,4.58,4.58,0,0,0-.85-1.37,4.2,4.2,0,0,0-1.29-1A3.62,3.62,0,0,0,98.71,38H93.06V50.78h2.48V46.5H98l2.68,4.28h2.81l-3-4.8A3.56,3.56,0,0,0,102.15,44.51Zm-2-1.45a2.19,2.19,0,0,1-.34.66,1.63,1.63,0,0,1-.51.44,1.31,1.31,0,0,1-.64.16H95.54V40.19h3a1.43,1.43,0,0,1,.64.15,1.76,1.76,0,0,1,.56.43,2.17,2.17,0,0,1,.39.66,2.31,2.31,0,0,1,.14.83A2.54,2.54,0,0,1,100.15,43.06Z"/><path class="cls-1" d="M123.59,46h2.57v.9A4.08,4.08,0,0,1,123,48.67a3.16,3.16,0,0,1-1.45-.33,3.63,3.63,0,0,1-1.14-.91,4.18,4.18,0,0,1-.76-1.36,5.09,5.09,0,0,1-.27-1.68,5.25,5.25,0,0,1,.25-1.64,4.59,4.59,0,0,1,.7-1.37,3.29,3.29,0,0,1,1.09-.93,3,3,0,0,1,1.43-.34,3.37,3.37,0,0,1,1.81.51,3.43,3.43,0,0,1,1.29,1.45l1.85-1.36a4.84,4.84,0,0,0-1.87-2,6.09,6.09,0,0,0-5.38-.24,6.18,6.18,0,0,0-1.92,1.38,6.36,6.36,0,0,0-1.28,2,6.66,6.66,0,0,0-.46,2.47,6.78,6.78,0,0,0,.46,2.46,6.9,6.9,0,0,0,1.26,2.09,6.17,6.17,0,0,0,1.88,1.45,5.09,5.09,0,0,0,2.3.54,4.59,4.59,0,0,0,3.4-1.53v1.44h2V44.21h-4.62Z"/><path class="cls-1" d="M140.08,40a6.2,6.2,0,0,0-1.91-1.48,5.36,5.36,0,0,0-2.46-.57,5.57,5.57,0,0,0-2.43.53,6.16,6.16,0,0,0-1.93,1.43,6.71,6.71,0,0,0-1.73,4.51,6.84,6.84,0,0,0,.43,2.39,6.51,6.51,0,0,0,1.23,2.08,6.11,6.11,0,0,0,1.92,1.46,5.5,5.5,0,0,0,2.46.55,5.58,5.58,0,0,0,2.43-.53A6.14,6.14,0,0,0,140,48.92a6.67,6.67,0,0,0,1.27-2.05,6.57,6.57,0,0,0,.46-2.44A6.92,6.92,0,0,0,140.08,40Zm-1.08,6a4.53,4.53,0,0,1-.68,1.38,3.45,3.45,0,0,1-1.11,1,3,3,0,0,1-1.52.37,3.12,3.12,0,0,1-1.51-.36,3.5,3.5,0,0,1-1.12-1,4.33,4.33,0,0,1-.7-1.37,5.31,5.31,0,0,1-.24-1.6,5.25,5.25,0,0,1,.23-1.55,4.28,4.28,0,0,1,.69-1.37,3.59,3.59,0,0,1,1.11-1,3.06,3.06,0,0,1,1.52-.37,3.1,3.1,0,0,1,1.48.35,3.46,3.46,0,0,1,1.11.94,4.46,4.46,0,0,1,.71,1.37,5.13,5.13,0,0,1,.25,1.6A5.27,5.27,0,0,1,139,45.95Z"/><path class="cls-1" d="M89.81,39.88a5.62,5.62,0,0,0-2-1.37A6.94,6.94,0,0,0,85.1,38H83l-.91,2.18h3a4,4,0,0,1,1.61.3,3.3,3.3,0,0,1,1.2.86,3.78,3.78,0,0,1,.74,1.33,5.42,5.42,0,0,1,.25,1.69A5.37,5.37,0,0,1,88.64,46a4,4,0,0,1-.73,1.34,3.34,3.34,0,0,1-1.19.89,3.9,3.9,0,0,1-1.63.32H78.56l-.91,2.18H85.1a7,7,0,0,0,2.6-.46,5.72,5.72,0,0,0,2-1.3A5.63,5.63,0,0,0,91,47a7.47,7.47,0,0,0,.44-2.64A7.66,7.66,0,0,0,91,41.9,5.67,5.67,0,0,0,89.81,39.88Z"/><polygon class="cls-1" points="28.97 38.01 23.63 50.78 24.96 50.78 29.49 39.48 33.98 50.78 35.33 50.78 29.99 38.01 28.97 38.01"/><polygon class="cls-1" points="61.7 38.01 66.72 50.78 68.07 50.78 63.03 38.01 61.7 38.01"/><polygon class="cls-1" points="77.36 38.01 72.87 49.3 70.32 42.95 69.69 44.44 72.34 50.78 73.37 50.78 78.71 38.01 77.36 38.01"/><path class="cls-1" d="M109.83,38l-5,12.77h2.63l1.17-3.18h4.48l1.17,3.18h2.63l-5-12.77ZM109,45.85l1.83-5.16,1.78,5.16Z"/></g></g></svg>