<svg xmlns="http://www.w3.org/2000/svg" xmlns:xlink="http://www.w3.org/1999/xlink" viewBox="0 0 209.05 50.89" width="209.05" height="50.89"><defs><style>.cls-1{fill:none;}.cls-2{clip-path:url(#clip-path);}.cls-3{fill:url(#linear-gradient);}.cls-4{clip-path:url(#clip-path-2);}.cls-5{fill:url(#linear-gradient-2);}.cls-6{fill:#6d6e71;}.cls-7{fill:#ed1c24;}.cls-8{fill:#b1b3b6;}.cls-9{fill:#a7a9ac;}.cls-10{fill:#808285;}.cls-11{fill:#d1d3d4;}.cls-12{fill:#e6e7e8;}.cls-13{fill:#636466;}.cls-14{fill:#58595b;}</style><clipPath id="clip-path"><path class="cls-1" d="M141.32,25.09a11.22,11.22,0,0,0,6.24,5.57L167.91,38h9.23L136,14.41Z"/></clipPath><linearGradient id="linear-gradient" x1="-528.82" y1="836.66" x2="-527.82" y2="836.66" gradientTransform="translate(21888.15 -34389.42) scale(41.13)" gradientUnits="userSpaceOnUse"><stop offset="0" stop-color="#b42026"/><stop offset="1" stop-color="#7a1316"/></linearGradient><clipPath id="clip-path-2"><path class="cls-1" d="M167.91,38h9.23l20.35-7.37a11.23,11.23,0,0,0,6.24-5.57L209,14.41Z"/></clipPath><linearGradient id="linear-gradient-2" x1="-528.82" y1="836.66" x2="-527.82" y2="836.66" gradientTransform="translate(21920.06 -34389.42) scale(41.13)" gradientUnits="userSpaceOnUse"><stop offset="0" stop-color="#7a1316"/><stop offset="1" stop-color="#b42026"/></linearGradient></defs><title>Asset 1</title><g id="Layer_2" data-name="Layer 2"><g id="Layer_1-2" data-name="Layer 1"><g class="cls-2"><rect class="cls-3" x="136.01" y="14.41" width="41.14" height="23.62"/></g><g class="cls-4"><rect class="cls-5" x="167.91" y="14.41" width="41.13" height="23.62"/></g><path class="cls-6" d="M189.87,0l-22,38h9.24L188,21.92a11.23,11.23,0,0,0,1.91-6.26V0Z"/><path class="cls-6" d="M155.19,0V15.66a11.23,11.23,0,0,0,1.91,6.26L167.91,38h9.24Z"/><polygon class="cls-7" points="172.57 43.92 167.91 40.44 172.57 47.4 177.23 40.44 172.57 43.92"/><polygon class="cls-8" points="177.15 38.03 177.15 38.03 182.94 29.4 167.91 38.03 177.15 38.03"/><polygon class="cls-9" points="177.15 38.03 162.12 29.4 167.91 38.03 177.15 38.03"/><polygon class="cls-10" points="167.91 38.03 177.15 38.03 172.53 30.03 167.91 38.03"/><polygon class="cls-11" points="167.91 38.03 177.15 38.03 177.15 38.03 174.85 34.05 167.91 38.03"/><polygon class="cls-8" points="167.91 38.03 177.15 38.03 170.21 34.05 167.91 38.03"/><polygon class="cls-12" points="172.53 35.38 167.91 38.03 177.15 38.03 172.53 35.38"/><polygon class="cls-7" points="146.15 42.6 146.15 50.78 143.66 50.78 143.66 38.01 145.59 38.01 152.24 46.39 152.24 38.03 154.72 38.03 154.72 50.78 152.71 50.78 146.15 42.6"/><path class="cls-6" d="M8.49,40.4a3.88,3.88,0,0,0-1.45-1A5.26,5.26,0,0,0,5,39a3.87,3.87,0,0,0-2.48.64,2.13,2.13,0,0,0-.77,1.73,1.91,1.91,0,0,0,.21.94A1.8,1.8,0,0,0,2.6,43a4.67,4.67,0,0,0,1.12.47q.67.2,1.59.4a18,18,0,0,1,1.83.48A5.18,5.18,0,0,1,8.52,45a2.8,2.8,0,0,1,.88,1,3.1,3.1,0,0,1,.31,1.45A3.23,3.23,0,0,1,9.37,49a3.05,3.05,0,0,1-1,1.08A4.29,4.29,0,0,1,7,50.68a7.74,7.74,0,0,1-1.83.21A7.52,7.52,0,0,1,0,49l.61-1A5.64,5.64,0,0,0,2.5,49.26a6.59,6.59,0,0,0,2.64.51,4.44,4.44,0,0,0,2.39-.55,1.84,1.84,0,0,0,.86-1.66,1.9,1.9,0,0,0-.24-1,2.09,2.09,0,0,0-.73-.7,5.17,5.17,0,0,0-1.21-.51q-.73-.22-1.68-.43t-1.76-.49A4.56,4.56,0,0,1,1.5,43.8a2.48,2.48,0,0,1-.77-.91,2.94,2.94,0,0,1-.26-1.3A3.59,3.59,0,0,1,.8,40a3.11,3.11,0,0,1,.94-1.15,4.35,4.35,0,0,1,1.44-.7A6.67,6.67,0,0,1,5,37.92a6.2,6.2,0,0,1,2.26.39A6.09,6.09,0,0,1,9.08,39.4Z"/><polygon class="cls-6" points="22.06 38.01 22.06 50.78 20.8 50.78 20.8 44.81 13.23 44.81 13.23 50.78 11.99 50.78 11.99 38.01 13.23 38.01 13.23 43.69 20.8 43.69 20.8 38.01 22.06 38.01"/><path class="cls-6" d="M37.19,50.78V38H41.5a6.63,6.63,0,0,1,2.68.5,5.41,5.41,0,0,1,1.92,1.37,5.63,5.63,0,0,1,1.14,2,7.93,7.93,0,0,1,.38,2.47A7.61,7.61,0,0,1,47.18,47,5.78,5.78,0,0,1,46,49,5.39,5.39,0,0,1,44,50.32a6.69,6.69,0,0,1-2.53.46H37.19Zm9.17-6.4A6.58,6.58,0,0,0,46,42.26a4.74,4.74,0,0,0-.94-1.66,4.22,4.22,0,0,0-1.52-1.09,5.18,5.18,0,0,0-2.07-.39H38.42V49.66H41.5a5.12,5.12,0,0,0,2.1-.4,4.28,4.28,0,0,0,1.52-1.12A4.83,4.83,0,0,0,46,46.47a6.7,6.7,0,0,0,.31-2.1"/><path class="cls-6" d="M55.27,50.87a5.4,5.4,0,0,1-2.44-.55,6,6,0,0,1-1.9-1.46,6.62,6.62,0,0,1-1.22-2.08,6.84,6.84,0,0,1-.43-2.39,6.64,6.64,0,0,1,.46-2.45A6.74,6.74,0,0,1,51,39.88a6.14,6.14,0,0,1,1.91-1.43,5.37,5.37,0,0,1,2.37-.53,5.26,5.26,0,0,1,2.44.57A6.14,6.14,0,0,1,59.62,40,6.87,6.87,0,0,1,60.83,42a6.75,6.75,0,0,1,.43,2.36,6.65,6.65,0,0,1-.46,2.45,6.76,6.76,0,0,1-1.26,2.06,6.11,6.11,0,0,1-1.9,1.42,5.38,5.38,0,0,1-2.37.53m-4.73-6.47a5.94,5.94,0,0,0,.34,2,5.43,5.43,0,0,0,1,1.71,4.77,4.77,0,0,0,1.49,1.19,4.17,4.17,0,0,0,1.92.44,4.11,4.11,0,0,0,2-.47A4.78,4.78,0,0,0,58.73,48a5.66,5.66,0,0,0,.94-1.71,5.88,5.88,0,0,0,0-3.95,5.5,5.5,0,0,0-1-1.7,4.83,4.83,0,0,0-1.49-1.18,4.13,4.13,0,0,0-1.91-.44,4.18,4.18,0,0,0-2,.46,4.68,4.68,0,0,0-1.49,1.21,5.62,5.62,0,0,0-.94,1.71,5.84,5.84,0,0,0-.33,1.94"/><path class="cls-7" d="M93.06,50.78V38h5.65a3.62,3.62,0,0,1,1.63.37,4.2,4.2,0,0,1,1.29,1,4.58,4.58,0,0,1,.85,1.37,4.1,4.1,0,0,1,.31,1.54,4.25,4.25,0,0,1-.62,2.26A3.56,3.56,0,0,1,100.47,46l3,4.8h-2.81L98,46.5H95.55v4.28H93.06Zm2.48-6.46h3.11a1.31,1.31,0,0,0,.64-.16,1.63,1.63,0,0,0,.51-.44,2.19,2.19,0,0,0,.34-.66,2.54,2.54,0,0,0,.13-.81,2.31,2.31,0,0,0-.14-.83,2.17,2.17,0,0,0-.39-.66,1.76,1.76,0,0,0-.56-.43,1.43,1.43,0,0,0-.64-.15h-3Z"/><path class="cls-7" d="M126.17,49.34a4.59,4.59,0,0,1-3.4,1.53,5.09,5.09,0,0,1-2.3-.54,6.17,6.17,0,0,1-1.88-1.45,6.9,6.9,0,0,1-1.26-2.09,6.78,6.78,0,0,1-.46-2.47,6.66,6.66,0,0,1,.46-2.47,6.36,6.36,0,0,1,1.28-2,6.18,6.18,0,0,1,1.93-1.38,6.09,6.09,0,0,1,5.38.24,4.84,4.84,0,0,1,1.87,2l-1.85,1.37a3.43,3.43,0,0,0-1.29-1.46,3.37,3.37,0,0,0-1.81-.51,3,3,0,0,0-1.43.34,3.29,3.29,0,0,0-1.09.94,4.59,4.59,0,0,0-.7,1.37,5.25,5.25,0,0,0-.25,1.64,5.09,5.09,0,0,0,.27,1.68,4.18,4.18,0,0,0,.75,1.36,3.63,3.63,0,0,0,1.14.91,3.16,3.16,0,0,0,1.45.33,4.08,4.08,0,0,0,3.18-1.74V46h-2.57V44.21h4.62v6.56h-2.05V49.34Z"/><path class="cls-7" d="M135.66,50.87a5.5,5.5,0,0,1-2.46-.55,6.11,6.11,0,0,1-1.91-1.46,6.51,6.51,0,0,1-1.23-2.08,6.84,6.84,0,0,1-.43-2.39,6.71,6.71,0,0,1,1.73-4.51,6.16,6.16,0,0,1,1.93-1.43,5.57,5.57,0,0,1,2.43-.53,5.36,5.36,0,0,1,2.46.57,6.2,6.2,0,0,1,1.9,1.48,6.92,6.92,0,0,1,1.65,4.46,6.57,6.57,0,0,1-.46,2.44A6.67,6.67,0,0,1,140,48.92a6.14,6.14,0,0,1-1.93,1.42,5.58,5.58,0,0,1-2.43.53m-3.54-6.47a5.31,5.31,0,0,0,.24,1.6,4.33,4.33,0,0,0,.7,1.37,3.5,3.5,0,0,0,1.12,1,3.12,3.12,0,0,0,1.51.36,3,3,0,0,0,1.52-.37,3.45,3.45,0,0,0,1.11-1,4.53,4.53,0,0,0,.68-1.38,5.27,5.27,0,0,0,.23-1.56,5.13,5.13,0,0,0-.25-1.6,4.46,4.46,0,0,0-.71-1.37,3.46,3.46,0,0,0-1.12-.94,3.1,3.1,0,0,0-1.48-.35,3.06,3.06,0,0,0-1.52.37,3.59,3.59,0,0,0-1.12,1,4.28,4.28,0,0,0-.69,1.37,5.25,5.25,0,0,0-.23,1.55"/><path class="cls-7" d="M91,41.9a5.52,5.52,0,0,0-3.16-3.39A6.94,6.94,0,0,0,85.1,38H83l-.91,2.18h3a4,4,0,0,1,1.61.31,3.3,3.3,0,0,1,1.2.86,3.78,3.78,0,0,1,.74,1.33,5.42,5.42,0,0,1,.25,1.69A5.37,5.37,0,0,1,88.64,46a4,4,0,0,1-.73,1.34,3.34,3.34,0,0,1-1.19.89,3.9,3.9,0,0,1-1.63.32H78.56l-.91,2.18H85.1a7,7,0,0,0,2.6-.46,5.72,5.72,0,0,0,2-1.29A5.63,5.63,0,0,0,91,47a7.47,7.47,0,0,0,.44-2.63A7.66,7.66,0,0,0,91,41.9"/><polygon class="cls-6" points="29.99 38.01 28.97 38.01 23.63 50.78 24.96 50.78 29.49 39.48 33.98 50.78 35.33 50.78 29.99 38.01"/><polygon class="cls-13" points="63.03 38.01 61.7 38.01 66.72 50.78 68.07 50.78 63.03 38.01"/><polygon class="cls-14" points="77.36 38.01 72.87 49.3 70.32 42.95 69.69 44.44 72.34 50.78 73.37 50.78 78.71 38.01 77.36 38.01"/><path class="cls-7" d="M104.79,50.78l5-12.77h2l5,12.77h-2.62l-1.17-3.18h-4.48l-1.17,3.18Zm6-10.09L109,45.85h3.61Z"/></g></g></svg>